# xmcd
#
# Track frame offsets: 
#        150
#        12650
#        23732
#        37320
#        48539
#        60142
#        77664
#        91888
#        103486
#        116287
#        126575
#        137993
#        151041
#        167821
#        178157
#        194134
#        206570
#        216869
#
# Disc length: 3103 seconds
#
# Revision: 0
# Processed by: cddbd v1.5.2PL0 Copyright (c) Steve Scherf et al.
# Submitted via: ExactAudioCopy v0.99pb3
#
DISCID=090c1d12
DTITLE=Various Artist - Country Roads - The Best Country CD For Miles CD3
DYEAR=2007
DGENRE=Country
TTITLE0=Johnny Cash - I Walk The Line
TTITLE1=Roger Miller - King Of The Road
TTITLE2=Mel McDaniel - Baby's Got Her Blue Jeans On
TTITLE3=Conway Twitty - It's Only Make Believe
TTITLE4=Kenny Rogers and The First Edition - Me And Bobby McGee
TTITLE5=Merle Haggard - I Think I'll Just Stay Here And Drink
TTITLE6=David Allan Coe - Ride Me Down Easy
TTITLE7=Sammi Smith - Help Me Make It Through The Night
TTITLE8=Charlie Rich - The Most Beautiful Girl
TTITLE9=Faron Young - Live Fast, Love Hard, Die Young
TTITLE10=Billie Jo Spears - Blanket On The Ground
TTITLE11=Tammy Wynette - Womanhood
TTITLE12=Porter Wagoner - Green Green Green Grass Of Home
TTITLE13=Dave Dudley - Six Days On The Road
TTITLE14=T.G. Sheppard - Party Time
TTITLE15=Johnny Paycheck - Take This Job And Shove It
TTITLE16=Waylon Jennings - White Lightning
TTITLE17=Willie Nelson and Merle Haggard - Reasons To Quit
EXTD=
EXTT0=
EXTT1=
EXTT2=
EXTT3=
EXTT4=
EXTT5=
EXTT6=
EXTT7=
EXTT8=
EXTT9=
EXTT10=
EXTT11=
EXTT12=
EXTT13=
EXTT14=
EXTT15=
EXTT16=
EXTT17=
PLAYORDER=
